<svg width="301" height="326" viewBox="0 0 301 326" fill="none" xmlns="http://www.w3.org/2000/svg">
<path d="M148.66 9.93001C218.11 9.93001 280.11 59.29 296.18 129.32C299.05 140.8 300.2 152.85 300.2 164.33C300.2 233.21 254.85 296.93 184.83 313C173.92 315.3 162.44 317.02 151.54 317.02C82.09 317.02 20.67 267.08 4.01999 197.05C1.14999 185 0 172.94 0 161.46C0 92.58 45.35 30.01 115.37 13.94C126.85 11.07 137.76 9.92003 148.66 9.92003V9.93001ZM55.05 92.38C66.64 133.14 88.93 176.03 97.75 193.39C115.39 228.11 138.47 265.6 165.26 294.26C178.43 307.79 201.28 328.07 222.07 324.75C223.51 324.34 225.17 324.73 226.61 324.32C228.76 323.71 230.69 322.29 232.62 320.88C235.98 319.06 239.12 316.44 241.54 314.02C255.37 297.13 251.05 265.54 247.03 245.95C245.44 240.36 244.57 234.56 242.98 228.96C233.66 196.19 217.69 161.87 202.36 132.54C186.35 100.81 126.89 -12.71 75.88 1.8C73.01 2.62 70.13 3.43 67.49 5.05C42.23 20.01 44.6 55.61 55.05 92.37V92.38Z" fill="white"/>
</svg>
